# xmcd CD database file
#
# Track frame offsets:
#	200
#	13775
#	30170
#	41345
#	55407
#	75307
#	88025
#	100507
#	113282
#	126525
#	142992
#	158580
#	171465
#	182395
#	195577
#	211555
#	224932
#	235377
#	252487
#	261617
#
# Disc length: 3656 seconds
#
# Revision: 0
# Processed by: cddbd v1.4PL0 Copyright (c) Steve Scherf et al.
# Submitted via: CDex 1.50Beta7
#
DISCID=0c0e4614
DTITLE=Jimmie Davis - Country Hits
DYEAR=1900
DGENRE=Country
TTITLE0=The Ding Dong Song
TTITLE1=You Are My Sunshine
TTITLE2=Going To The Function
TTITLE3=Hang On To Memories
TTITLE4=Dating A Memory
TTITLE5=Lonesome Whistle
TTITLE6=Shackles And Chains
TTITLE7=Nobody's Darlin' But Mine
TTITLE8=You'll Be My Last Love
TTITLE9=Today I'm Giving You Away
TTITLE10=I'm Begging
TTITLE11=Where The Old Red River Flows
TTITLE12=Columbus Stockade Blues
TTITLE13=Going Home For Christmas
TTITLE14=Louisiana This One's For You
TTITLE15=Welcome To The Club
TTITLE16=Makes No Difference Now
TTITLE17=Last Few Miles
TTITLE18=There's A New Moon Over My Shoulder
TTITLE19=The Beginning Of The End
EXTD=
EXTT0=
EXTT1=
EXTT2=
EXTT3=
EXTT4=
EXTT5=
EXTT6=
EXTT7=
EXTT8=
EXTT9=
EXTT10=
EXTT11=
EXTT12=
EXTT13=
EXTT14=
EXTT15=
EXTT16=
EXTT17=
EXTT18=
EXTT19=
PLAYORDER=
